<svg preserveAspectRatio="none" width="1600" height="600" viewBox="0 0 1600 600" fill="none" xmlns="http://www.w3.org/2000/svg">
<rect width="1600" height="600" fill="#E8E8E8"/>
<mask id="mask0" mask-type="alpha" maskUnits="userSpaceOnUse" x="1" y="0" width="1600" height="550">
<rect x="1" width="1600" height="550" fill="#B11E24"/>
</mask>
<g mask="url(#mask0)">
<g filter="url(#filter0_f)">
<ellipse cx="515.5" cy="279.922" rx="417" ry="360.884" fill="#F8F8F8"/>
</g>
</g>
<path d="M273.5 645.5C187.1 650.7 44.5 634 -16 625V390.5C28.3333 406.167 167 444.1 367 470.5C617 503.5 796 452 872.5 428.5C949 405 1274.5 226.5 1363.5 188.5C1434.7 158.1 1551.83 139.5 1601.5 134V303C1328 223.5 1083.5 368.5 828.5 495.5C573.5 622.5 381.5 639 273.5 645.5Z" fill="white"/>
<defs>
<filter id="filter0_f" x="-151.5" y="-330.962" width="1334" height="1221.77" filterUnits="userSpaceOnUse" color-interpolation-filters="sRGB">
<feFlood flood-opacity="0" result="BackgroundImageFix"/>
<feBlend mode="normal" in="SourceGraphic" in2="BackgroundImageFix" result="shape"/>
<feGaussianBlur stdDeviation="125" result="effect1_foregroundBlur"/>
</filter>
</defs>
</svg>
