<?xml version="1.0" encoding="UTF-8"?>
<svg width="111px" height="93px" viewBox="0 0 111 93" version="1.1" xmlns="http://www.w3.org/2000/svg" xmlns:xlink="http://www.w3.org/1999/xlink">
    <title>Fill 2</title>
    <g id="Page-1" stroke="none" stroke-width="1" fill="none" fill-rule="evenodd">
        <g id="Плакат-Ambassador2" transform="translate(0.000000, -673.000000)" fill="#D1242F">
            <path d="M88.151,674.604 C83.937,678.532 78.073,684.873 74.305,688.888 C72.041,691.605 72.206,695.373 72.154,697.039 C72.166,700.097 72.41,704.509 72.494,710.965 C72.607,719.683 69.663,726.25 68.644,730.439 C67.925,733.396 66.097,738.931 66.335,745 C66.369,745.861 63.625,746.327 62.288,743.593 C62.121,743.097 61.069,741.515 61.09,736.576 C61.092,736 61.178,734.652 61.178,734.652 C61.243,730.979 62.667,724.374 62.72,723.952 C62.807,723.232 62.791,722.579 62.6,722.424 C62.914,722.192 62.804,718.276 62.526,715.532 C63.87,717.457 67.463,716.797 67.182,713.7 C66.54,706.602 66.842,702.583 66.842,702.583 C66.854,702.275 66.448,702.186 66.408,702.555 C66.374,703.05 65.99,706.232 66.628,713.8 C66.749,715.234 65.743,716.054 64.654,716.031 C64.005,716.017 63.114,715.646 62.625,714.91 C62.567,714.84 62.371,714.379 62.328,714.11 C62.165,713.303 62.12,712.953 61.969,712.864 C62.25,712.716 62.183,711.923 62.038,711.172 C61.885,710.384 61.451,708.893 60.867,707.097 C60.623,706.145 60.323,705.08 59.955,703.921 C59.478,702.417 57.837,696.997 58.373,692.767 C58.433,692.141 58.602,691.464 58.602,691.464 C59.136,688.989 60.187,686.728 64.16,682.891 C66.377,680.749 69.059,677.049 71.227,673.794 C71.271,673.769 71.313,673.748 71.357,673.723 C65.007,675.096 59.36,678.356 55.035,682.889 C49.22,676.796 41.019,673 31.932,673 C14.296,673 -2.13162821e-14,687.296 -2.13162821e-14,704.932 C-2.13162821e-14,714.559 4.26,723.192 10.999,729.046 C13.165,730.929 20.237,736.789 28.098,743.271 C30.21,741.421 31.587,740.197 31.894,739.967 C34.498,737.702 35.574,736.627 36.027,733.739 C36.359,731.624 36.743,729.31 37.282,722.457 C37.678,717.428 37.862,715.67 39.49,712.211 C41.868,707.158 46.627,697.233 47.331,695.418 C48.208,693.154 48.447,691.194 48.689,690.417 C48.958,689.553 50.431,689.93 51.053,690.6 C52.024,691.647 52.001,693.289 51.916,694.648 C51.841,695.741 51.638,697.659 51.179,699.912 C50.88,701.243 50.436,702.691 50.123,703.747 C49.171,706.956 48.262,709.631 48.029,710.876 C47.86,711.781 47.8,712.631 48.087,712.852 C47.687,713.211 47.239,716.091 47.114,718.469 C46.152,715.355 42.062,716.12 42.189,719.432 C42.463,726.547 42.419,730.56 42.419,730.56 C42.417,730.696 42.515,730.779 42.622,730.775 C42.731,730.77 42.822,730.679 42.826,730.53 C42.844,730.224 42.907,727.143 42.674,719.471 C42.584,716.497 46.569,715.816 47.04,719.904 C47.075,720.154 47.1,720.443 47.128,720.677 C47.206,721.505 47.206,722.237 47.312,722.439 L47.313,722.44 C47.193,722.64 47.129,723.195 47.213,723.861 C47.262,724.281 48.078,731.007 48.143,734.68 C48.141,735.009 48.13,735.33 48.111,735.639 C47.97,740.766 46.419,743.644 40.677,748.957 C40.114,749.478 39.085,750.621 38.184,751.575 C47.254,759.033 55.036,765.41 55.036,765.41 C55.036,765.41 94.671,733.408 100.425,727.799 C106.375,722 110.069,713.897 110.069,704.932 C110.069,690.794 100.881,678.805 88.151,674.604" id="Fill-2"></path>
        </g>
    </g>
</svg>